<svg version="1.2" xmlns="http://www.w3.org/2000/svg" viewBox="0 0 168 168" width="168" height="168"><style>.a{fill:#3c3c3c}</style><path fill-rule="evenodd" class="a" d="m84 0.3c46.3 0 83.7 37.5 83.7 83.7 0 46.3-37.5 83.8-83.7 83.8-46.3 0-83.7-37.5-83.7-83.8 0-46.2 37.4-83.7 83.7-83.7zm36.7 113.6c-22.1-13.5-49.5-16.7-81.4-9.4-2.8 0.7-4.5 3.5-3.9 6.3 0.6 2.8 3.4 4.6 6.3 3.9 29.1-6.6 53.9-3.9 73.5 8.1 2.5 1.5 5.7 0.7 7.2-1.7 1.5-2.5 0.7-5.7-1.7-7.2zm12-15.7c1.8-3 0.9-7-2.2-8.9-25.8-15.9-63.7-20.4-94.1-11.2-3.4 1.1-5.4 4.7-4.3 8.2 1 3.4 4.7 5.4 8.1 4.3 26.6-8 61-4 83.5 9.8 3 1.9 7.1 0.9 9-2.2zm11.6-26.4c2.2-3.8 1-8.6-2.8-10.8-31-18.4-80.2-20.2-109.8-11.2-4.1 1.3-6.5 5.7-5.2 9.8 1.2 4.1 5.6 6.5 9.7 5.2 25.8-7.8 70.3-6.3 97.3 9.7 3.7 2.2 8.6 1 10.8-2.7z"/></svg>